<?xml version="1.0" encoding="UTF-8" standalone="no"?>
<!-- Created with Inkscape (http://www.inkscape.org/) -->

<svg
   xmlns:dc="http://purl.org/dc/elements/1.1/"
   xmlns:cc="http://creativecommons.org/ns#"
   xmlns:rdf="http://www.w3.org/1999/02/22-rdf-syntax-ns#"
   xmlns:svg="http://www.w3.org/2000/svg"
   xmlns="http://www.w3.org/2000/svg"
   xmlns:sodipodi="http://sodipodi.sourceforge.net/DTD/sodipodi-0.dtd"
   xmlns:inkscape="http://www.inkscape.org/namespaces/inkscape"
   width="700mm"
   height="700mm"
   viewBox="0 0 700 700"
   version="1.1"
   id="svg2647"
   inkscape:version="0.92.4 (5da689c313, 2019-01-14)"
   sodipodi:docname="inter-milan-logo.svg"
   inkscape:export-filename="C:\Users\suitedoalex\sites\inter-milan-logo-0.png"
   inkscape:export-xdpi="148.6263"
   inkscape:export-ydpi="148.6263">
  <defs
     id="defs2641">
    <clipPath
       clipPathUnits="userSpaceOnUse"
       id="clipPath386">
      <path
         d="m 1104.1666,13202.929 h 554.1667 v 554.167 h -554.1667 z"
         id="path384"
         inkscape:connector-curvature="0"
         style="clip-rule:evenodd" />
    </clipPath>
  </defs>
  <sodipodi:namedview
     id="base"
     pagecolor="#ffffff"
     bordercolor="#666666"
     borderopacity="1.0"
     inkscape:pageopacity="0.0"
     inkscape:pageshadow="2"
     inkscape:zoom="0.12374369"
     inkscape:cx="-438.45492"
     inkscape:cy="1701.7044"
     inkscape:document-units="mm"
     inkscape:current-layer="layer1"
     showgrid="false"
     inkscape:window-width="1600"
     inkscape:window-height="837"
     inkscape:window-x="-8"
     inkscape:window-y="-8"
     inkscape:window-maximized="1" />
  <metadata
     id="metadata2644">
    <rdf:RDF>
      <cc:Work
         rdf:about="">
        <dc:format>image/svg+xml</dc:format>
        <dc:type
           rdf:resource="http://purl.org/dc/dcmitype/StillImage" />
        <dc:title></dc:title>
      </cc:Work>
    </rdf:RDF>
  </metadata>
  <g
     inkscape:label="Layer 1"
     inkscape:groupmode="layer"
     id="layer1"
     transform="translate(0,403)">
    <g
       id="g380"
       transform="matrix(1.1214542,0,0,1.1214542,-1199.0086,-15170.216)"
       inkscape:export-filename="C:\Users\suitedoalex\sites\inter-milan-logo-4.png"
       inkscape:export-xdpi="21.019203"
       inkscape:export-ydpi="21.019203">
      <g
         id="g382"
         clip-path="url(#clipPath386)">
        <g
           id="g388"
           transform="matrix(0.51311731,0,0,0.51311731,1104.1666,13202.929)">
          <path
             d="M 871.70001,680.09998 C 853.60004,723 827.60004,761.5 794.60004,794.5 c -33,33 -71.5,59 -114.40003,77.09998 C 635.70001,890.5 588.59998,900 540,900 491.40002,900 444.29999,890.5 399.89999,871.70001 357,853.60004 318.5,827.60004 285.5,794.60004 c -33,-33 -59,-71.5 -77.10001,-114.40003 C 189.5,635.70001 180,588.59998 180,540 180,491.40002 189.5,444.29999 208.3,399.89999 226.40001,357 252.39999,318.5 285.39999,285.5 c 33,-33 71.5,-59 114.4,-77.10001 C 444.29999,189.5 491.39999,180 540,180 c 48.59998,0 95.70001,9.5 140.09998,28.3 C 723,226.40001 761.5,252.39999 794.5,285.39999 c 33,33 59,71.5 77.09998,114.4 C 890.5,444.29999 900,491.39999 900,540 c 0,48.59998 -9.5,95.70001 -28.29999,140.09998 z"
             style="fill:#011ea0;fill-opacity:1;fill-rule:nonzero;stroke:none"
             id="path390"
             inkscape:connector-curvature="0" />
          <path
             d="m 926.90002,376.5 c -21.20001,-50 -51.40002,-94.89999 -90,-133.5 -38.5,-38.5 -83.40002,-68.8 -133.5,-90 C 651.70001,131.10001 596.59998,120 540,120 c -56.59998,0 -111.70001,11.10001 -163.5,33.10001 -50,21.19999 -94.89999,51.39999 -133.5,90 -38.60001,38.6 -68.8,83.39999 -90,133.5 C 131.10001,428.29999 120,483.39999 120,540 c 0,56.59998 11.10001,111.70001 33.10001,163.5 21.19999,50 51.39999,94.90002 90,133.5 38.5,38.5 83.39999,68.79999 133.5,90 51.69998,21.90002 106.79998,33 163.39999,33 56.59998,0 111.70001,-11.09998 163.5,-33.09998 50,-21.20001 94.90002,-51.40002 133.5,-90 38.59998,-38.59997 68.79999,-83.40002 90,-133.5 C 948.90002,651.70001 960,596.59998 960,540 960,483.39999 948.90002,428.29999 926.90002,376.5 Z M 871.70001,680.09998 C 853.60004,723 827.60004,761.5 794.60004,794.5 c -33,33 -71.5,59 -114.40003,77.09998 C 635.70001,890.5 588.59998,900 540,900 491.40002,900 444.29999,890.5 399.89999,871.70001 357,853.60004 318.5,827.60004 285.5,794.60004 c -33,-33 -59,-71.5 -77.10001,-114.40003 C 189.5,635.70001 180,588.59998 180,540 180,491.40002 189.5,444.29999 208.3,399.89999 226.40001,357 252.39999,318.5 285.39999,285.5 c 33,-33 71.5,-59 114.4,-77.10001 C 444.29999,189.5 491.39999,180 540,180 c 48.59998,0 95.70001,9.5 140.09998,28.3 C 723,226.40001 761.5,252.39999 794.5,285.39999 c 33,33 59,71.5 77.09998,114.4 C 890.5,444.29999 900,491.39999 900,540 c 0,48.59998 -9.5,95.70001 -28.29999,140.09998 z"
             style="fill:#000000;fill-opacity:1;fill-rule:nonzero;stroke:none"
             id="path392"
             inkscape:connector-curvature="0" />
          <path
             d="m 765.20001,341.79999 -28.40002,60.79999 C 764,441.60001 780,488.89999 780,540 c 0,42.79999 -11.20001,82.90002 -30.79999,117.70001 l 7.79999,89.5 C 808.40002,693.40002 840,620.40002 840,540.09998 840,464 811.79999,394.70001 765.20001,341.79999 Z"
             style="fill:#ffffff;fill-opacity:1;fill-rule:nonzero;stroke:none"
             id="path394"
             inkscape:connector-curvature="0" />
          <path
             d="m 570.40002,778.09998 v -21 -37.20002 -32.29998 -10.70002 -131.29998 -132.19999 -111.5 c 25.20002,3.20002 49.20002,10.29999 71.29999,20.70002 l 25.40003,-54.4 C 628.5,250.10001 585.40002,240 540,240 c -45.39999,0 -88.5,10.10001 -127.10001,28.20001 l 25.4,54.4 C 460.69998,312.10001 485,305 510.5,301.80002 v 111.6 134.70002 126.09997 15.90003 30.29998 36.70002 21.09997 C 486.70001,775.29999 463.89999,768.79999 442.79999,759.5 l -5.5,62.5 c 32,11.59998 66.6,18 102.70001,18 36.20001,0 71,-6.40002 103.09998,-18.20001 l -5.5,-62.5 c -20.89997,9.40002 -43.5,15.79999 -67.19996,18.79999 z"
             style="fill:#ffffff;fill-opacity:1;fill-rule:nonzero;stroke:none"
             id="path396"
             inkscape:connector-curvature="0" />
          <path
             d="M 314.79999,341.79999 C 268.20001,394.70001 240,464 240,540 c 0,80.5 31.70001,153.59998 83.29999,207.40002 l 7.79999,-89.29998 C 311.29999,623.29999 300,583 300,540 c 0,-51.10001 16,-98.39999 43.20001,-137.29999 z"
             style="fill:#ffffff;fill-opacity:1;fill-rule:nonzero;stroke:none"
             id="path398"
             inkscape:connector-curvature="0" />
          <path
             d="M 715.20001,614.79999 698.5,423.5 l -0.79999,-9 17.79999,-38.20001 26.90002,-57.70001 c -15.09997,-13.79999 -31.5,-26 -49.20001,-36.5 l -25.5,54.70001 -27.70001,59.5 -39.40002,84.6 v 142.00003 l 46.40002,-99.5 8.5,96.70002 10.79999,124.09997 L 672,809.5 c 20.40002,-10 39.5,-22.29999 57,-36.5 l -6.70001,-76.90002 z"
             style="fill:#ffffff;fill-opacity:1;fill-rule:nonzero;stroke:none"
             id="path400"
             inkscape:connector-curvature="0" />
          <path
             d="m 480.60001,484.20001 -43.4,-93.1 L 412,337 386.5,282.29999 c -17.60001,10.5 -34.10001,22.79999 -49.10001,36.6 l 26.9,57.79999 18,38.5 -0.10001,1.70001 -16.6,189.60001 -7.79999,89.59998 L 351.09998,773 c 17.5,14.20001 36.6,26.5 57,36.5 l 5.70001,-65.40002 11.6,-132.5 7.70002,-87.70002 47.70001,102.29999 V 484.20001 Z"
             style="fill:#ffffff;fill-opacity:1;fill-rule:nonzero;stroke:none"
             id="path402"
             inkscape:connector-curvature="0" />
        </g>
      </g>
    </g>
  </g>
</svg>
